# File created by Blade
# Date/Time:  Mon Sep 22 16:45:27 2014
# Frame Rate: 120.000 fps
#------------------------------------------------------
:FULLY-SPECIFIED
:DEGREES
3780
root 5.417575 40.192056 -0.628787 43.236200 9.724018 50.897840
RightUpLeg -22.938250 -22.197799 -44.066345
RightLeg 12.807390 -0.000000 -0.000000
RightFoot -15.360533 -10.118835 16.134640
RightToeBase 4.374832 -0.000000 -0.000000
LeftUpLeg -14.358643 -16.442671 27.072502
LeftLeg 136.204718 -0.000000 -0.000000
LeftFoot 37.892848 5.570092 -24.695052
LeftToeBase -4.179648 -0.000000 0.000000
Spine 1.372956 10.820243 -13.318732
RightShoulder -8.794974 -9.386133 -33.695502
RightArm -29.415102 72.543536 19.392679
RightForeArm -10.442207 0.000000 145.207666
RightHand -8.269633 0.000000 -22.666241
RightHandThumb1 -24.326973 -0.000000 -32.862282
LeftShoulder -34.364160 26.356638 -17.021999
LeftArm 17.584961 -15.853079 -63.608973
LeftForeArm 36.481485 -0.000000 103.059404
LeftHand -13.934729 0.000000 -3.247189
LeftHandThumb1 -26.253704 0.000000 33.147579
Head -15.264110 -27.294997 -17.028863
3781
root 5.435869 40.185399 -0.622544 43.065365 9.750571 50.860365
RightUpLeg -22.847732 -22.071369 -44.090317
RightLeg 12.927670 -0.000000 -0.000000
RightFoot -15.450050 -10.094171 16.185544
RightToeBase 4.384382 -0.000000 -0.000000
LeftUpLeg -14.263107 -16.318230 26.938697
LeftLeg 136.136586 -0.000000 -0.000000
LeftFoot 37.854219 5.492838 -24.700266
LeftToeBase -4.100896 -0.000000 0.000000
Spine 1.543934 10.715281 -13.283858
RightShoulder -8.703826 -9.372036 -33.664413
RightArm -29.218806 72.576209 19.656887
RightForeArm -10.413190 -0.000000 145.143203
RightHand -8.113932 -0.000000 -23.079067
RightHandThumb1 -24.326973 -0.000000 -32.862282
LeftShoulder -34.320622 26.411353 -16.996684
LeftArm 17.586166 -15.731485 -63.571395
LeftForeArm 36.601357 -0.000000 103.142362
LeftHand -13.934202 -0.000000 -3.261737
LeftHandThumb1 -26.253704 0.000000 33.147579
Head -15.149299 -27.228085 -16.960006
3782
root 5.452594 40.176785 -0.613785 42.900958 9.810220 50.825275
RightUpLeg -22.751851 -21.966656 -44.092498
RightLeg 13.078071 -0.000000 -0.000000
RightFoot -15.546927 -10.099949 16.180161
RightToeBase 4.361276 -0.000000 -0.000000
LeftUpLeg -14.196437 -16.157883 26.822355
LeftLeg 136.031446 -0.000000 -0.000000
LeftFoot 37.855607 5.561441 -24.774133
LeftToeBase -4.118855 -0.000000 0.000000
Spine 1.687490 10.587033 -13.236726
RightShoulder -8.579274 -9.334753 -33.626226
RightArm -29.198984 72.583646 19.746776
RightForeArm -10.442971 -0.000000 145.073785
RightHand -8.081314 -0.000000 -23.130512
RightHandThumb1 -24.326973 -0.000000 -32.862282
LeftShoulder -34.320322 26.529193 -16.983352
LeftArm 17.686353 -15.588321 -63.568424
LeftForeArm 36.714602 0.000000 103.162863
LeftHand -13.891066 -0.000000 -3.308644
LeftHandThumb1 -26.253704 0.000000 33.147579
Head -14.975820 -27.122494 -16.903771
3783
root 5.467309 40.167445 -0.606008 42.719889 9.888229 50.779438
RightUpLeg -22.648665 -21.788310 -44.098015
RightLeg 13.266759 -0.000000 -0.000000
RightFoot -15.650545 -10.199798 16.157762
RightToeBase 4.278863 -0.000000 -0.000000
LeftUpLeg -14.129418 -15.959377 26.715898
LeftLeg 135.911752 -0.000000 -0.000000
LeftFoot 37.782837 5.474093 -24.627798
LeftToeBase -3.875846 -0.000000 0.000000
Spine 1.897926 10.474696 -13.174938
RightShoulder -8.586102 -9.297794 -33.525189
RightArm -28.770270 72.585214 20.154638
RightForeArm -10.593688 -0.000000 144.966466
RightHand -8.247918 -0.000000 -22.916668
RightHandThumb1 -24.326973 -0.000000 -32.862282
LeftShoulder -34.315833 26.562203 -16.978090
LeftArm 17.755329 -15.451155 -63.513935
LeftForeArm 36.769112 -0.000000 103.214723
LeftHand -13.709135 -0.000000 -3.422833
LeftHandThumb1 -26.253704 0.000000 33.147579
Head -14.920127 -27.181727 -16.782257
3784
root 5.482665 40.157076 -0.595184 42.559099 9.999028 50.740075
RightUpLeg -22.542462 -21.637970 -44.085317
RightLeg 13.466169 -0.000000 -0.000000
RightFoot -15.810066 -10.245283 16.222799
RightToeBase 4.258503 -0.000000 -0.000000
LeftUpLeg -14.094202 -15.742617 26.629597
LeftLeg 135.771333 -0.000000 -0.000000
LeftFoot 37.763400 5.568580 -24.743414
LeftToeBase -3.963086 -0.000000 0.000000
Spine 2.018440 10.345597 -13.098198
RightShoulder -8.517107 -9.307937 -33.452508
RightArm -28.458755 72.553069 20.476556
RightForeArm -10.698921 -0.000000 144.860399
RightHand -8.219078 -0.000000 -22.978669
RightHandThumb1 -24.326973 -0.000000 -32.862282
LeftShoulder -34.242188 26.637467 -16.900631
LeftArm 17.771524 -15.304565 -63.515648
LeftForeArm 36.958078 -0.000000 103.262983
LeftHand -13.543218 -0.000000 -3.719070
LeftHandThumb1 -26.253704 0.000000 33.147579
Head -14.675304 -27.249209 -16.767786
3785
root 5.496812 40.144052 -0.584220 42.388072 10.149809 50.705351
RightUpLeg -22.433839 -21.579084 -44.031623
RightLeg 13.713286 -0.000000 -0.000000
RightFoot -15.935776 -10.275289 16.168326
RightToeBase 4.200669 -0.000000 -0.000000
LeftUpLeg -14.073090 -15.506533 26.566633
LeftLeg 135.622937 -0.000000 -0.000000
LeftFoot 37.707496 5.635049 -24.768747
LeftToeBase -3.941098 -0.000000 0.000000
Spine 2.192752 10.193674 -13.007209
RightShoulder -8.497431 -9.293083 -33.341140
RightArm -28.221318 72.506134 20.689814
RightForeArm -10.758510 0.000000 144.730132
RightHand -8.172574 0.000000 -23.091123
RightHandThumb1 -24.326973 -0.000000 -32.862282
LeftShoulder -34.228277 26.657598 -16.841790
LeftArm 17.830451 -15.122441 -63.469441
LeftForeArm 37.077700 -0.000000 103.294714
LeftHand -13.509717 0.000000 -3.696682
LeftHandThumb1 -26.253704 0.000000 33.147579
Head -14.549387 -27.365231 -16.696602
3786
root 5.510461 40.130401 -0.569718 42.216706 10.298327 50.655913
RightUpLeg -22.315193 -21.475583 -43.975506
RightLeg 13.934972 -0.000000 -0.000000
RightFoot -16.077465 -10.304893 16.191285
RightToeBase 4.132165 -0.000000 -0.000000
LeftUpLeg -14.049630 -15.224966 26.485258
LeftLeg 135.455990 -0.000000 -0.000000
LeftFoot 37.609444 5.742088 -24.828023
LeftToeBase -3.695505 -0.000000 0.000000
Spine 2.332058 10.050068 -12.914280
RightShoulder -8.456176 -9.305733 -33.233094
RightArm -27.960310 72.454949 20.938089
RightForeArm -10.846104 -0.000000 144.613407
RightHand -8.256595 -0.000000 -23.176310
RightHandThumb1 -24.326973 -0.000000 -32.862282
LeftShoulder -34.226307 26.736033 -16.802529
LeftArm 17.946282 -14.978357 -63.479081
LeftForeArm 37.207348 0.000000 103.305297
LeftHand -13.374465 -0.000000 -3.926235
LeftHandThumb1 -26.253704 0.000000 33.147579
Head -14.336436 -27.428115 -16.675154
3787
root 5.527600 40.116750 -0.551228 42.049994 10.494084 50.629158
RightUpLeg -22.137365 -21.382803 -43.929685
RightLeg 14.157259 -0.000000 -0.000000
RightFoot -16.247946 -10.375466 16.194406
RightToeBase 4.092361 -0.000000 -0.000000
LeftUpLeg -14.038498 -14.978074 26.419867
LeftLeg 135.278002 -0.000000 -0.000000
LeftFoot 37.550192 5.738066 -24.850067
LeftToeBase -3.652486 -0.000000 0.000000
Spine 2.430016 9.861540 -12.789460
RightShoulder -8.351775 -9.297051 -33.171573
RightArm -27.916154 72.326052 21.004705
RightForeArm -10.949365 -0.000000 144.503448
RightHand -8.226035 -0.000000 -23.251342
RightHandThumb1 -24.326973 -0.000000 -32.862282
LeftShoulder -34.194746 26.862632 -16.775444
LeftArm 18.053660 -14.876986 -63.497589
LeftForeArm 37.296108 -0.000000 103.290547
LeftHand -13.288126 -0.000000 -4.177627
LeftHandThumb1 -26.253704 0.000000 33.147579
Head -14.018397 -27.382837 -16.743950
3788
root 5.538742 40.102939 -0.534733 41.919037 10.681122 50.597062
RightUpLeg -21.987922 -21.285825 -43.878988
RightLeg 14.351446 -0.000000 -0.000000
RightFoot -16.399601 -10.420411 16.198477
RightToeBase 4.056069 -0.000000 -0.000000
LeftUpLeg -14.072033 -14.669188 26.354210
LeftLeg 135.099374 -0.000000 -0.000000
LeftFoot 37.501319 5.796823 -24.980818
LeftToeBase -3.637898 -0.000000 0.000000
Spine 2.512150 9.684075 -12.703392
RightShoulder -8.330137 -9.301779 -33.065479
RightArm -27.626830 72.174711 21.293974
RightForeArm -11.057170 0.000000 144.385438
RightHand -8.258773 -0.000000 -23.307933
RightHandThumb1 -24.326973 -0.000000 -32.862282
LeftShoulder -34.140118 26.899756 -16.701044
LeftArm 18.084030 -14.751600 -63.476616
LeftForeArm 37.380404 -0.000000 103.317549
LeftHand -13.179010 -0.000000 -4.076336
LeftHandThumb1 -26.253704 0.000000 33.147579
Head -13.811298 -27.409598 -16.724603
3789
root 5.549687 40.086732 -0.517895 41.767044 10.890424 50.551017
RightUpLeg -21.801206 -21.110805 -43.823254
RightLeg 14.526438 -0.000000 -0.000000
RightFoot -16.573514 -10.569159 16.179799
RightToeBase 3.991369 -0.000000 -0.000000
LeftUpLeg -14.112824 -14.386949 26.310919
LeftLeg 134.913597 -0.000000 -0.000000
LeftFoot 37.555706 5.811550 -25.079519
LeftToeBase -3.605657 -0.000000 0.000000
Spine 2.611199 9.509241 -12.589028
RightShoulder -8.289349 -9.335463 -32.970570
RightArm -27.437031 72.050477 21.504197
RightForeArm -11.061737 -0.000000 144.249035
RightHand -8.105322 -0.000000 -23.634192
RightHandThumb1 -24.326973 -0.000000 -32.862282
LeftShoulder -34.103464 26.954953 -16.629972
LeftArm 18.184132 -14.640978 -63.488951
LeftForeArm 37.533441 -0.000000 103.300506
LeftHand -13.127021 0.000000 -4.203990
LeftHandThumb1 -26.253704 0.000000 33.147579
Head -13.615437 -27.465054 -16.715221
3790
root 5.559662 40.068846 -0.500567 41.596606 11.115095 50.510853
RightUpLeg -21.589875 -20.942145 -43.765863
RightLeg 14.710867 -0.000000 -0.000000
RightFoot -16.768563 -10.699815 16.173519
RightToeBase 3.950841 -0.000000 -0.000000
LeftUpLeg -14.130493 -14.107717 26.269429
LeftLeg 134.736230 -0.000000 -0.000000
LeftFoot 37.549943 5.804826 -25.140430
LeftToeBase -3.630881 -0.000000 0.000000
Spine 2.769098 9.328788 -12.494370
RightShoulder -8.315687 -9.357249 -32.808734
RightArm -27.159384 71.911436 21.745325
RightForeArm -11.123073 -0.000000 144.093144
RightHand -8.251970 0.000000 -23.460631
RightHandThumb1 -24.326973 -0.000000 -32.862282
LeftShoulder -34.039933 26.913336 -16.499325
LeftArm 18.187948 -14.484914 -63.477074
LeftForeArm 37.550973 -0.000000 103.339318
LeftHand -13.278726 -0.000000 -4.323645
LeftHandThumb1 -26.253704 0.000000 33.147579
Head -13.541658 -27.537387 -16.607436
